<svg viewBox="0 0 1600 900" xmlns="http://www.w3.org/2000/svg">
  <defs>
    <linearGradient id="bgGrad" x1="0%" y1="0%" x2="100%" y2="100%">
      <stop offset="0%" stop-color="#0A2342"/>
      <stop offset="55%" stop-color="#123159"/>
      <stop offset="100%" stop-color="#0A2342"/>
    </linearGradient>
    <linearGradient id="pillarGrad" x1="0%" y1="0%" x2="0%" y2="100%">
      <stop offset="0%" stop-color="#C8A951" stop-opacity="0.18"/>
      <stop offset="100%" stop-color="#C8A951" stop-opacity="0.02"/>
    </linearGradient>
  </defs>
  <rect width="1600" height="900" fill="url(#bgGrad)"/>
  <!-- Courthouse silhouette -->
  <g opacity="0.5">
    <rect x="150" y="380" width="1300" height="18" fill="#C8A951" opacity="0.35"/>
    <g fill="url(#pillarGrad)">
      <rect x="220" y="398" width="46" height="330"/>
      <rect x="340" y="398" width="46" height="330"/>
      <rect x="460" y="398" width="46" height="330"/>
      <rect x="580" y="398" width="46" height="330"/>
      <rect x="700" y="398" width="46" height="330"/>
      <rect x="820" y="398" width="46" height="330"/>
      <rect x="940" y="398" width="46" height="330"/>
      <rect x="1060" y="398" width="46" height="330"/>
      <rect x="1180" y="398" width="46" height="330"/>
      <rect x="1300" y="398" width="46" height="330"/>
    </g>
    <polygon points="150,398 800,220 1450,398" fill="#0F2A50" stroke="#C8A951" stroke-width="3" stroke-opacity="0.4"/>
  </g>
  <!-- Scales of justice -->
  <g transform="translate(800,300)" opacity="0.9" stroke="#C8A951" stroke-width="4" fill="none" stroke-linecap="round" stroke-linejoin="round">
    <line x1="0" y1="0" x2="0" y2="160"/>
    <line x1="-140" y1="0" x2="140" y2="0"/>
    <circle cx="0" cy="-16" r="10" fill="#C8A951" stroke="none"/>
    <path d="M -140 0 L -180 70 A 45 45 0 0 0 -100 70 Z"/>
    <path d="M 140 0 L 100 70 A 45 45 0 0 0 180 70 Z"/>
    <line x1="-140" y1="0" x2="-140" y2="-24"/>
    <line x1="140" y1="0" x2="140" y2="-24"/>
    <rect x="-60" y="160" width="120" height="14" rx="3" fill="#C8A951" stroke="none"/>
    <rect x="-90" y="174" width="180" height="14" rx="3" fill="#C8A951" stroke="none" opacity="0.7"/>
  </g>
</svg>